# xmcd CD database file
#
# Track frame offsets:
#	150
#	15701
#	36082
#	64219
#	89096
#	104675
#	121360
#	137730
#	161105
#	206371
#	224617
#	256354
#	290341
#	309316
#
# Disc length: 4526 seconds
#
# Revision: 0
# Processed by: cddbd v1.5.2PL0 Copyright (c) Steve Scherf et al.
# Submitted via: CDex 1.51
#
DISCID=d611ac0e
DTITLE=Lem Winchester - A Tribute to Clifford Brown and Winchester Special
DYEAR=2015
DGENRE=Jazz
TTITLE0=Joy Spring
TTITLE1=Where It Is
TTITLE2=Sandu
TTITLE3=Once In A While
TTITLE4=Jordu
TTITLE5=It Could Happen To You
TTITLE6=Easy To Love
TTITLE7=A Message From Boysie
TTITLE8=Down Fuzz
TTITLE9=If I Were A Bell
TTITLE10=Will You Still Be Mine
TTITLE11=Mysticism
TTITLE12=How Are Things In Glocca Morra
TTITLE13=The Dude
EXTD=YEAR: 2015
EXTT0=
EXTT1=
EXTT2=
EXTT3=
EXTT4=
EXTT5=
EXTT6=
EXTT7=
EXTT8=
EXTT9=
EXTT10=
EXTT11=
EXTT12=
EXTT13=
PLAYORDER=
